<?xml version="1.0" ?><svg data-name="Слой 1" id="Слой_1" viewBox="0 0 128 128" fill="#ccc" xmlns="http://www.w3.org/2000/svg"><title/><path d="M126,16H2a2,2,0,0,0-2,2v92a2,2,0,0,0,2,2H126a2,2,0,0,0,2-2V18A2,2,0,0,0,126,16Zm-2,92H4V20H124Z"/><path d="M68.66,86.49a2,2,0,0,0,2.83-.15L88,68l16.51,18.35a2,2,0,0,0,3-2.68L90.69,65l16.8-18.66a2,2,0,1,0-3-2.68L88,62,71.49,43.66a2,2,0,0,0-3,2.68L85.31,65,68.51,83.66A2,2,0,0,0,68.66,86.49Z"/><path d="M26,87H58a2,2,0,0,0,0-4H28V67H53a2,2,0,0,0,0-4H28V47H58a2,2,0,0,0,0-4H26a2,2,0,0,0-2,2V85A2,2,0,0,0,26,87Z"/></svg>